# xmcd
#
# Track frame offsets:
# 150
# 16455
# 33840
# 46037
# 65362
# 80513
# 93491
# 105654
# 120313
# 134065
# 149285
# 161008
# 173725
# 185742
# 200819
# 216882
# 232020
# 248488
# 268806
# 282649
# 296463
# 313299
#
# Disc length: 4405 seconds
#
#
# Revision: 2
# Processed by: cddbd v1.5.1PL2 Copyright (c) Steve Scherf et al.
# Submitted via: FreeRIP 2.945 
#
DISCID=4e113316
DTITLE=Forrozão 2004 - 22 Super Sucessos
DYEAR=1900
DGENRE=Forro
TTITLE0=Ele Não Bebe Não Fuma e Não Foge - Bruno e Marlo
TTITLE1=Nóis Trupica Mas Não Cai - Rick e Renner
TTITLE2=Mulher Boa - Dois a Um
TTITLE3=Apaixonado Por Você - Gino e Geno
TTITLE4=Estorou um Cano - Daniel
TTITLE5=Folha de Urtiga - Boquuinha do Foró
TTITLE6=Aqui Pra Ela - Teodoro e Sampaio
TTITLE7=Libera o Toim - Arriba Saia
TTITLE8=Credo em Cruz Ave-Maria - Bruno e Marrone
TTITLE9=Manuela - Agnaldo e Adriano
TTITLE10=Alaquitanga - Frank Aguiar
TTITLE11=Na Sola da Bota - Rionegro e Solimões
TTITLE12=Rabo de Saia - Gian e Giovane
TTITLE13=Bão Também - Teodoro e Sampaio
TTITLE14=Mete o Dedo - Gino e Geno
TTITLE15=A Malvada - Juliano César
TTITLE16=Cem Anos - Falamansa
TTITLE17=Rock do Jegue - Arriba Saia
TTITLE18=O Grito da Galera - Rionegro e Solimões
TTITLE19=Nóis só Qué Virá os Zóio - César e Paulinho
TTITLE20=Tá Ruim Mas tá Bão - Gilberto e Gilmar
TTITLE21=Bicicleta - Boquinha do Forró
EXTD=Vários Artistas
EXTT0=
EXTT1=
EXTT2=
EXTT3=
EXTT4=
EXTT5=
EXTT6=
EXTT7=
EXTT8=
EXTT9=
EXTT10=
EXTT11=
EXTT12=
EXTT13=
EXTT14=
EXTT15=
EXTT16=
EXTT17=
EXTT18=
EXTT19=
EXTT20=
EXTT21=
PLAYORDER=
